<?xml version="1.0" encoding="UTF-8"?>
<svg class="css-1j8o68f" width="30" height="20" viewBox="0 0 65.19 44.217" xmlns="http://www.w3.org/2000/svg">
    <g transform="matrix(.77707 0 0 .77707 -6.3132 -16.814)" fill="white">
        <g xmlns="http://www.w3.org/2000/svg">
            <defs>
                <path id="a" d="m29.17 23.548c-1.182-0.451-2.395-0.836-3.646-1.145-0.094-0.027-0.19-0.044-0.28-0.056-0.175-0.033-0.343-0.056-0.495-0.06-0.238-0.012-0.435 0.011-0.598 0.054-0.166 0.04-0.286 0.106-0.354 0.189-0.071 0.09-0.088 0.197-0.041 0.321 0.31 0.814 0.603 1.658 0.884 2.513 0.048 0.146 0.156 0.299 0.31 0.457 0.15 0.151 0.349 0.309 0.58 0.459 0.229 0.151 0.484 0.295 0.76 0.421 0.272 0.127 0.559 0.238 0.846 0.329 1.716 0.513 3.384 1.131 5.016 1.841 0.036 0.014 0.072 0.028 0.109 0.045 0.211 0.084 0.397 0.143 0.562 0.181 0.191 0.033 0.351 0.042 0.477 0.015 0.119-0.03 0.205-0.086 0.242-0.177 0.036-0.094 0.033-0.215-0.022-0.365-0.336-0.905-0.67-1.818-1.016-2.733-0.051-0.138-0.148-0.297-0.278-0.459-0.132-0.157-0.298-0.327-0.486-0.493-0.188-0.158-0.401-0.321-0.623-0.46-0.223-0.146-0.467-0.271-0.71-0.378-0.336-0.144-0.67-0.28-1.011-0.412l-0.226-0.087zm5.854 2.923c-0.164-0.062-0.303-0.083-0.41-0.073-0.105 8e-3 -0.178 0.051-0.21 0.127-0.035 0.08-0.027 0.192 0.027 0.329 0.356 0.92 0.702 1.837 1.052 2.739 0.059 0.15 0.159 0.323 0.294 0.499 0.134 0.181 0.302 0.365 0.488 0.548 0.186 0.187 0.392 0.366 0.604 0.531 0.213 0.169 0.434 0.319 0.649 0.445 1.289 0.759 2.554 1.578 3.795 2.452 0.025 0.017 0.052 0.034 0.081 0.054 0.157 0.107 0.299 0.187 0.415 0.238 0.139 0.062 0.25 0.089 0.326 0.081 0.078-6e-3 0.12-0.051 0.131-0.127 0.01-0.078-0.019-0.194-0.085-0.34-0.398-0.885-0.794-1.782-1.195-2.703-0.06-0.141-0.153-0.302-0.271-0.482-0.119-0.168-0.258-0.354-0.415-0.541-0.161-0.183-0.334-0.365-0.514-0.539-0.182-0.174-0.366-0.333-0.548-0.469-1.193-0.893-2.409-1.722-3.651-2.493-0.074-0.042-0.141-0.078-0.207-0.114-0.101-0.057-0.195-0.101-0.284-0.135-0.022-9e-3 -0.05-0.019-0.072-0.027m-14.869-4.605c-0.249-0.083-0.534-0.143-0.845-0.186-0.31-0.036-0.648-0.051-0.998-0.037-2.264 0.089-4.655 0.481-7.248 1.356-0.167 0.06-0.329 0.118-0.484 0.179-0.261 0.099-0.504 0.202-0.736 0.31-0.373 0.171-0.704 0.342-0.972 0.501-0.274 0.156-0.481 0.303-0.604 0.413-0.069 0.062-0.116 0.116-0.135 0.157l-3e-3 0.011c-0.011 0.032-6e-3 0.057 0.018 0.075 0.362 0.294 0.694 0.662 1.001 1.092 0.051 0.076 0.196 0.117 0.408 0.143 0.217 0.021 0.503 0.022 0.826 0.019 0.331-0.012 0.706-0.036 1.102-0.065 0.395-0.037 0.814-0.08 1.235-0.138 2.503-0.338 4.866-0.336 7.131-0.123 0.061 9e-3 0.116 0.013 0.175 0.018 0.277 0.021 0.538 0.021 0.768 0.012 0.277-0.02 0.518-0.061 0.707-0.127 0.188-0.056 0.325-0.145 0.405-0.253 0.081-0.1 0.106-0.224 0.058-0.362-0.275-0.817-0.563-1.611-0.866-2.378-0.046-0.116-0.157-0.228-0.32-0.332-0.114-0.078-0.253-0.151-0.417-0.216-0.067-0.026-0.133-0.046-0.206-0.069m22.36 10.202c-0.067-5e-3 -0.109 0.031-0.117 0.097-9e-3 0.069 0.017 0.177 0.077 0.315 0.41 0.914 0.818 1.81 1.227 2.682 0.07 0.146 0.169 0.313 0.294 0.494 0.128 0.179 0.272 0.367 0.435 0.559 0.158 0.186 0.332 0.373 0.504 0.544 0.175 0.18 0.354 0.339 0.522 0.48 1.012 0.837 2.01 1.703 3.001 2.595 0.019 0.018 0.04 0.04 0.061 0.062 0.126 0.105 0.234 0.189 0.322 0.247 0.1 0.069 0.181 0.105 0.226 0.098 0.052 0 0.068-0.035 0.058-0.105s-0.056-0.177-0.133-0.32c-0.447-0.831-0.889-1.69-1.335-2.578-0.067-0.133-0.161-0.293-0.273-0.466-0.11-0.17-0.24-0.352-0.382-0.539-0.138-0.181-0.287-0.371-0.435-0.541-0.151-0.178-0.307-0.345-0.452-0.488-0.951-0.927-1.909-1.827-2.887-2.697-0.049-0.043-0.097-0.082-0.143-0.122-0.105-0.083-0.202-0.152-0.284-0.204-0.062-0.036-0.117-0.064-0.168-0.085-0.043-0.02-0.082-0.027-0.118-0.028m-14.945-3.678c-0.02-8e-3 -0.042-0.014-0.062-0.019-0.267-0.074-0.515-0.121-0.735-0.13-0.24-0.015-0.449 0.011-0.617 0.068-0.167 0.056-0.292 0.14-0.358 0.259-0.072 0.116-0.087 0.262-0.039 0.43 0.327 1.122 0.642 2.252 0.95 3.379 0.05 0.187 0.168 0.389 0.332 0.583 0.163 0.198 0.374 0.396 0.621 0.571 0.243 0.182 0.519 0.348 0.809 0.484 0.26 0.128 0.535 0.238 0.81 0.312 0.031 0.01 0.06 0.019 0.093 0.025 1.81 0.48 3.596 1.024 5.345 1.651 0.27 0.104 0.508 0.154 0.713 0.175 0.201 0.019 0.364 0 0.491-0.051 0.121-0.053 0.203-0.134 0.236-0.252 0.033-0.112 0.02-0.262-0.053-0.439-0.406-1.036-0.814-2.101-1.222-3.191-0.064-0.163-0.174-0.346-0.317-0.531-0.143-0.188-0.323-0.378-0.521-0.555-0.203-0.187-0.429-0.358-0.669-0.516-0.234-0.156-0.487-0.293-0.736-0.405-0.56-0.236-1.123-0.468-1.689-0.685-1.11-0.429-2.236-0.817-3.382-1.163m9.909 4.303c-0.166-0.047-0.309-0.055-0.415-0.031-0.105 0.023-0.178 0.09-0.208 0.182-0.025 0.097-0.012 0.232 0.054 0.39 0.429 1.074 0.859 2.122 1.292 3.132 0.071 0.175 0.191 0.36 0.343 0.557 0.149 0.186 0.336 0.379 0.543 0.566 0.205 0.188 0.43 0.362 0.663 0.526 0.217 0.149 0.441 0.282 0.655 0.393 0.013 8e-3 0.029 0.014 0.046 0.022 1.366 0.67 2.709 1.402 4.032 2.19 0.201 0.123 0.376 0.208 0.517 0.257 0.142 0.045 0.252 0.062 0.323 0.037 0.075-0.025 0.11-0.083 0.111-0.17-4e-3 -0.094-0.048-0.214-0.133-0.374-0.492-0.937-0.993-1.905-1.483-2.913-0.074-0.153-0.183-0.329-0.317-0.51-0.134-0.183-0.291-0.376-0.463-0.563-0.171-0.188-0.359-0.38-0.55-0.549-0.196-0.175-0.394-0.328-0.583-0.463-1.255-0.862-2.539-1.668-3.843-2.417-0.025-0.015-0.051-0.033-0.08-0.046-0.122-0.067-0.239-0.121-0.349-0.163-0.056-0.021-0.103-0.038-0.155-0.053m-16.242-5.644c-0.315-0.104-0.653-0.18-1.001-0.223-2.275-0.272-4.634-0.358-7.12-0.148-0.052 9e-3 -0.101 0.012-0.152 0.016-0.363 0.036-0.708 0.099-1.021 0.18-0.361 0.086-0.68 0.198-0.945 0.315-0.259 0.116-0.461 0.239-0.585 0.361-0.127 0.125-0.175 0.248-0.131 0.365 0.309 0.773 0.582 1.636 0.817 2.571 0.039 0.163 0.167 0.312 0.369 0.457 0.195 0.151 0.463 0.289 0.775 0.414 0.308 0.128 0.67 0.237 1.053 0.326 0.348 0.079 0.711 0.138 1.086 0.171 0.039 5e-3 0.082 0.01 0.125 0.01 2.453 0.185 4.854 0.487 7.214 0.872 0.356 0.059 0.689 0.074 0.98 0.054 0.286-0.018 0.531-0.078 0.728-0.165 0.199-0.094 0.345-0.211 0.426-0.359 0.086-0.147 0.112-0.319 0.059-0.511-0.281-1.132-0.572-2.262-0.884-3.367-0.044-0.172-0.159-0.336-0.32-0.504-0.162-0.167-0.374-0.324-0.625-0.466-0.176-0.102-0.371-0.197-0.581-0.278-0.083-0.033-0.174-0.066-0.267-0.091m27.562 11.013c-0.045-5e-3 -0.062 0.027-0.053 0.09 0.01 0.064 0.047 0.166 0.113 0.3 0.454 0.875 0.909 1.724 1.368 2.548 0.076 0.137 0.178 0.299 0.298 0.466 0.122 0.175 0.254 0.353 0.401 0.531 0.144 0.181 0.292 0.359 0.446 0.526 0.153 0.167 0.298 0.322 0.438 0.457 0.83 0.805 1.66 1.614 2.486 2.428 0.013 7e-3 0.026 0.021 0.037 0.028 0.113 0.111 0.21 0.196 0.279 0.252 0.08 0.059 0.133 0.086 0.165 0.086 0.027-3e-3 0.025-0.035 2e-3 -0.104-0.028-0.064-0.08-0.162-0.16-0.287-0.49-0.77-0.978-1.568-1.462-2.392-0.074-0.127-0.171-0.277-0.279-0.439-0.106-0.158-0.229-0.328-0.355-0.5-0.131-0.175-0.264-0.346-0.397-0.51s-0.264-0.318-0.389-0.458c-0.792-0.866-1.589-1.73-2.392-2.582-0.029-0.033-0.061-0.064-0.093-0.097-0.093-0.093-0.175-0.166-0.242-0.225-0.073-0.057-0.131-0.091-0.174-0.107-0.015-6e-3 -0.026-0.011-0.037-0.011m-3.427 0.059c-0.065 8e-3 -0.103 0.05-0.099 0.133-2e-3 0.079 0.035 0.196 0.113 0.35 0.507 0.989 1.015 1.944 1.528 2.86 0.083 0.155 0.203 0.32 0.349 0.507 0.142 0.181 0.311 0.371 0.485 0.556 0.181 0.183 0.371 0.363 0.562 0.532 0.177 0.155 0.356 0.3 0.521 0.418 0.013 0.01 0.023 0.019 0.037 0.023 1.062 0.761 2.112 1.546 3.157 2.356 0.164 0.127 0.294 0.214 0.398 0.271 0.101 0.055 0.176 0.076 0.214 0.064 0.043-0.014 0.049-0.06 0.026-0.135-0.023-0.074-0.083-0.189-0.175-0.33-0.556-0.847-1.11-1.73-1.659-2.657-0.083-0.14-0.193-0.303-0.322-0.476-0.129-0.171-0.27-0.354-0.427-0.536-0.152-0.182-0.315-0.364-0.479-0.536-0.161-0.169-0.326-0.331-0.479-0.469-0.998-0.876-2.004-1.732-3.027-2.556-0.013-9e-3 -0.024-0.02-0.038-0.025-0.152-0.123-0.288-0.215-0.404-0.272-0.035-0.021-0.071-0.037-0.107-0.052-0.071-0.026-0.131-0.035-0.174-0.026m46.095 19.245c-0.067 0.014-0.183 0.053-0.349 0.116-0.166 0.062-0.374 0.146-0.623 0.246-1.484 0.606-2.955 1.124-4.418 1.525-0.222 0.064-0.463 0.133-0.708 0.2-0.243 0.069-0.489 0.141-0.724 0.204-0.24 0.065-0.464 0.129-0.671 0.186-0.115 0.031-0.23 0.063-0.327 0.092-0.07 0.022-0.136 0.039-0.195 0.059-0.924 0.286-1.832 0.515-2.705 0.688-0.145 0.03-0.246 0.054-0.294 0.073-0.056 0.021-0.062 0.035-0.025 0.047 0.039 0.012 0.122 0.018 0.247 0.018 0.122 0 0.296-0.01 0.504-0.026 1.382-0.113 2.777-0.342 4.182-0.671 0.237-0.056 0.5-0.123 0.766-0.201 0.27-0.08 0.545-0.169 0.816-0.261 0.264-0.092 0.523-0.188 0.751-0.279 0.105-0.042 0.201-0.084 0.29-0.119 0.12-0.05 0.216-0.098 0.305-0.141 0.951-0.454 1.927-0.966 2.938-1.541 0.152-0.085 0.248-0.149 0.285-0.184 0.023-0.021 0.027-0.032 0.016-0.036-7e-3 -4e-3 -0.028-1e-3 -0.061 5e-3m-37.422-13.642c-0.03-5e-3 -0.035 0.025-0.012 0.088 0.025 0.062 0.071 0.155 0.147 0.28 0.492 0.812 0.987 1.594 1.484 2.345 0.087 0.126 0.19 0.27 0.306 0.423 0.12 0.153 0.254 0.317 0.385 0.474 0.138 0.16 0.28 0.319 0.417 0.467 0.134 0.147 0.269 0.281 0.387 0.394 0.721 0.697 1.446 1.383 2.177 2.053 0.011 0.012 0.022 0.021 0.034 0.03 0.1 0.089 0.175 0.155 0.235 0.197 0.067 0.05 0.105 0.068 0.118 0.059 0.015-4e-3 5e-3 -0.037-0.032-0.095-0.039-0.062-0.099-0.146-0.189-0.259-0.533-0.676-1.061-1.382-1.585-2.12-0.081-0.117-0.179-0.247-0.286-0.387-0.112-0.143-0.23-0.293-0.354-0.445-0.122-0.152-0.249-0.303-0.37-0.445-0.124-0.144-0.244-0.279-0.349-0.395-0.698-0.754-1.39-1.511-2.082-2.278-0.028-0.03-0.055-0.058-0.08-0.085-0.079-0.084-0.149-0.151-0.2-0.201-0.061-0.052-0.104-0.083-0.133-0.094-3e-3 -3e-3 -0.012-6e-3 -0.018-6e-3m-2.079 0.039c-0.041 7e-3 -0.049 0.044-0.028 0.116 0.021 0.073 0.07 0.18 0.158 0.316 0.558 0.907 1.123 1.774 1.685 2.602 0.096 0.14 0.219 0.297 0.359 0.462 0.14 0.169 0.293 0.336 0.458 0.513 0.163 0.17 0.33 0.335 0.493 0.486 0.155 0.146 0.306 0.278 0.444 0.391 0.011 0.01 0.02 0.02 0.027 0.024 0.88 0.711 1.751 1.421 2.632 2.124 0.135 0.107 0.246 0.188 0.323 0.235 0.078 0.044 0.129 0.062 0.151 0.056 0.019-0.014 9e-3 -0.054-0.033-0.121-0.04-0.066-0.112-0.164-0.212-0.288-0.604-0.743-1.206-1.524-1.803-2.348-0.089-0.126-0.203-0.271-0.331-0.428-0.126-0.153-0.264-0.319-0.408-0.482-0.141-0.163-0.291-0.326-0.434-0.479-0.146-0.155-0.286-0.301-0.417-0.421-0.835-0.794-1.675-1.591-2.517-2.377-0.01-0.011-0.023-0.022-0.034-0.034-0.123-0.111-0.233-0.2-0.312-0.256-0.058-0.039-0.103-0.063-0.138-0.077-0.027-8e-3 -0.047-0.013-0.063-0.014m-16.64-6.167c-1.781-0.592-3.599-1.099-5.442-1.54-0.31-0.075-0.598-0.103-0.851-0.089-0.253 0.015-0.475 0.067-0.649 0.164-0.174 0.089-0.304 0.217-0.373 0.38-0.071 0.155-0.084 0.35-0.025 0.564 0.385 1.434 0.774 2.841 1.162 4.198 0.069 0.234 0.2 0.463 0.392 0.681 0.193 0.219 0.433 0.416 0.711 0.591 0.274 0.179 0.583 0.321 0.913 0.433 0.211 0.071 0.428 0.129 0.648 0.168 0.118 0.025 0.237 0.037 0.355 0.05 1.992 0.194 3.956 0.46 5.884 0.836 0.293 0.056 0.547 0.075 0.766 0.056 0.213-0.016 0.385-0.067 0.506-0.153 0.122-0.083 0.195-0.192 0.217-0.334 0.019-0.142-0.012-0.305-0.104-0.495-0.542-1.105-1.078-2.271-1.608-3.493-0.08-0.187-0.21-0.381-0.373-0.573-0.167-0.197-0.367-0.393-0.593-0.576-0.223-0.178-0.472-0.354-0.733-0.499-0.219-0.13-0.45-0.24-0.68-0.325-9e-3 -3e-3 -0.017-6e-3 -0.022-9e-3 -0.034-0.016-0.065-0.025-0.101-0.035m5.202 2.096c-0.175-0.028-0.32-0.019-0.426 0.028-0.102 0.049-0.169 0.137-0.188 0.252-0.019 0.117 0.013 0.268 0.096 0.447 0.558 1.177 1.123 2.297 1.69 3.363 0.093 0.179 0.242 0.367 0.42 0.555 0.183 0.188 0.398 0.375 0.633 0.546 0.234 0.171 0.489 0.327 0.748 0.467 0.173 0.095 0.35 0.178 0.521 0.249 0.083 0.028 0.161 0.059 0.24 0.089 1.463 0.504 2.901 1.085 4.312 1.736 0.216 0.101 0.396 0.165 0.542 0.194 0.14 0.03 0.245 0.024 0.312-0.012 0.062-0.037 0.082-0.105 0.061-0.208-0.018-0.099-0.082-0.229-0.193-0.388-0.64-0.936-1.28-1.927-1.917-2.979-0.095-0.157-0.225-0.332-0.382-0.516-0.154-0.187-0.333-0.371-0.528-0.557-0.192-0.185-0.399-0.362-0.609-0.524-0.181-0.144-0.373-0.273-0.555-0.383-0.023-0.018-0.048-0.028-0.071-0.044-1.342-0.768-2.7-1.473-4.092-2.114-0.066-0.034-0.13-0.061-0.195-0.086-0.153-0.056-0.296-0.095-0.419-0.115m8.411 4.811c-0.059 0.027-0.084 0.08-0.066 0.173 0.015 0.09 0.069 0.21 0.166 0.366 0.65 1.024 1.304 1.987 1.959 2.899 0.111 0.158 0.261 0.329 0.429 0.499 0.17 0.177 0.365 0.352 0.568 0.525 0.201 0.168 0.415 0.337 0.625 0.484 0.148 0.106 0.293 0.205 0.438 0.293 0.053 0.034 0.11 0.066 0.161 0.096 1.118 0.64 2.226 1.307 3.335 1.992 0.17 0.104 0.302 0.174 0.406 0.217 0.101 0.038 0.167 0.049 0.196 0.029 0.025-0.022 0.018-0.074-0.023-0.153-0.046-0.082-0.125-0.189-0.247-0.326-0.702-0.813-1.401-1.679-2.098-2.599-0.109-0.141-0.24-0.3-0.39-0.465-0.146-0.167-0.314-0.342-0.487-0.515-0.175-0.175-0.352-0.341-0.532-0.498-0.153-0.14-0.307-0.265-0.453-0.376-0.02-0.018-0.039-0.033-0.06-0.048-1.056-0.788-2.121-1.554-3.196-2.293-0.181-0.12-0.336-0.208-0.458-0.257-4e-3 -1e-3 -9e-3 -2e-3 -0.017-6e-3 -0.113-0.042-0.199-0.054-0.256-0.037m-26.648-9.929c-0.062-0.011-0.125-0.022-0.187-0.034-2.395-0.376-4.82-0.69-7.282-0.938-0.417-0.038-0.814-0.036-1.167 0.011-0.361 0.046-0.678 0.128-0.94 0.246-0.267 0.117-0.476 0.263-0.609 0.437-0.133 0.171-0.192 0.373-0.16 0.594 0.22 1.505 0.396 3.099 0.541 4.742 0.026 0.287 0.139 0.576 0.325 0.854 0.188 0.283 0.448 0.55 0.759 0.787 0.313 0.24 0.675 0.442 1.071 0.597 0.243 0.099 0.499 0.179 0.765 0.233 0.165 0.033 0.332 0.059 0.498 0.074 2.57 0.242 5.185 0.373 7.805 0.492 0.392 0.016 0.754-0.021 1.073-0.102 0.316-0.081 0.584-0.204 0.799-0.359 0.211-0.153 0.366-0.336 0.454-0.551 0.086-0.208 0.108-0.437 0.049-0.685-0.336-1.442-0.674-2.912-1.02-4.408-0.055-0.222-0.176-0.446-0.35-0.657-0.173-0.216-0.397-0.418-0.668-0.598-0.26-0.188-0.566-0.351-0.896-0.479-0.032-0.012-0.064-0.024-0.098-0.038-0.244-0.092-0.502-0.166-0.762-0.218m36.348 14.071c-0.02-3e-3 -0.01 0.031 0.023 0.085 0.029 0.062 0.086 0.145 0.169 0.254 0.533 0.722 1.068 1.403 1.61 2.057 0.092 0.106 0.201 0.231 0.321 0.358 0.119 0.129 0.25 0.267 0.382 0.396 0.135 0.136 0.27 0.264 0.402 0.386 0.127 0.117 0.25 0.225 0.361 0.314 0.658 0.541 1.321 1.07 1.998 1.565 9e-3 9e-3 0.023 0.017 0.033 0.026 0.089 0.066 0.161 0.11 0.207 0.139 0.054 0.034 0.083 0.044 0.087 0.033 4e-3 -9e-3 -0.02-0.043-0.063-0.091-0.048-0.05-0.12-0.122-0.215-0.216-0.581-0.552-1.155-1.141-1.722-1.764-0.087-0.099-0.19-0.205-0.303-0.324-0.111-0.121-0.233-0.244-0.352-0.368-0.125-0.126-0.245-0.25-0.363-0.368-0.117-0.117-0.229-0.225-0.331-0.321-0.637-0.604-1.265-1.223-1.89-1.859-0.024-0.023-0.047-0.047-0.071-0.068-0.069-0.07-0.128-0.125-0.172-0.165-0.043-0.037-0.077-0.059-0.098-0.067-4e-3 -2e-3 -0.01-5e-3 -0.013-2e-3m-1.148 0.272c-0.017 8e-3 -0.014 0.047 0.021 0.108 0.032 0.066 0.1 0.162 0.19 0.281 0.607 0.801 1.219 1.561 1.834 2.277 0.102 0.115 0.229 0.252 0.366 0.393 0.142 0.145 0.292 0.288 0.444 0.43 0.158 0.144 0.316 0.284 0.466 0.408 0.142 0.119 0.274 0.224 0.396 0.313 0.01 0.011 0.02 0.017 0.027 0.023 0.771 0.573 1.544 1.121 2.331 1.647 0.124 0.079 0.22 0.139 0.281 0.168 0.063 0.033 0.101 0.043 0.106 0.029s-0.021-0.05-0.074-0.105c-0.049-0.059-0.131-0.135-0.242-0.239-0.66-0.601-1.316-1.247-1.961-1.938-0.097-0.106-0.217-0.228-0.346-0.359-0.124-0.126-0.263-0.264-0.404-0.397-0.139-0.138-0.282-0.271-0.416-0.398-0.133-0.126-0.263-0.241-0.379-0.344-0.739-0.642-1.479-1.307-2.206-1.979-0.011-9e-3 -0.018-0.018-0.031-0.025-0.108-0.1-0.193-0.173-0.261-0.221-0.046-0.035-0.085-0.057-0.108-0.066-0.017-6e-3 -0.027-8e-3 -0.034-6e-3m27.387 11.566c-0.05-6e-3 -0.151 1e-3 -0.294 0.022-0.152 0.022-0.343 0.055-0.579 0.099-1.38 0.253-2.759 0.403-4.115 0.436-0.209 6e-3 -0.433 0.015-0.67 0.022-0.229 8e-3 -0.47 0.013-0.702 0.019-0.228 6e-3 -0.451 0.011-0.658 0.018-0.106 5e-3 -0.214 5e-3 -0.31 9e-3 -0.081 6e-3 -0.154 7e-3 -0.221 0.013-0.98 0.049-1.921 0.039-2.844-0.022-0.155-0.011-0.264-0.016-0.326-9e-3 -0.064 5e-3 -0.09 0.02-0.068 0.041 0.022 0.023 0.089 0.051 0.194 0.088 0.113 0.032 0.259 0.074 0.456 0.113 1.276 0.272 2.562 0.433 3.847 0.487 0.224 0.012 0.465 0.012 0.723 9e-3 0.254-8e-3 0.521-0.023 0.784-0.045 0.26-0.022 0.515-0.052 0.747-0.087 0.092-0.015 0.181-0.028 0.268-0.044 0.127-0.022 0.238-0.046 0.344-0.071 0.996-0.229 2.031-0.531 3.1-0.903 0.165-0.058 0.275-0.105 0.33-0.139 0.037-0.025 0.05-0.042 0.025-0.051-6e-3 -4e-3 -0.015-5e-3 -0.031-5e-3m-28.978-10.958c-0.028 0.015-0.024 0.062 9e-3 0.137 0.038 0.077 0.111 0.187 0.215 0.32 0.705 0.89 1.421 1.729 2.135 2.515 0.12 0.131 0.269 0.277 0.431 0.429 0.169 0.156 0.351 0.309 0.534 0.458 0.184 0.151 0.375 0.297 0.558 0.429 0.13 0.095 0.261 0.18 0.376 0.256 0.045 0.03 0.089 0.06 0.137 0.086 0.926 0.572 1.856 1.13 2.8 1.666 0.147 0.084 0.259 0.142 0.333 0.17 0.077 0.029 0.121 0.034 0.13 0.016 6e-3 -0.02-0.022-0.062-0.083-0.125-0.063-0.067-0.156-0.152-0.283-0.265-0.766-0.656-1.521-1.367-2.276-2.136-0.112-0.12-0.248-0.251-0.398-0.391-0.147-0.142-0.31-0.288-0.471-0.432-0.164-0.146-0.329-0.29-0.493-0.428-0.146-0.121-0.289-0.239-0.419-0.339-7e-3 -5e-3 -0.017-0.013-0.028-0.02-0.895-0.675-1.783-1.362-2.665-2.05-0.149-0.109-0.27-0.193-0.359-0.24-0.036-0.019-0.062-0.033-0.089-0.044-0.041-0.016-0.074-0.018-0.094-0.012m26.08 10.611c-0.042-5e-3 -0.122-6e-3 -0.246 5e-3 -0.123 8e-3 -0.276 0.021-0.473 0.042-1.155 0.118-2.309 0.151-3.434 0.095-0.174-9e-3 -0.362-0.018-0.562-0.029-0.195-9e-3 -0.398-0.019-0.592-0.027-0.195-0.011-0.384-0.022-0.559-0.033-0.126-9e-3 -0.247-0.015-0.352-0.021-0.037-3e-3 -0.073-4e-3 -0.106-5e-3 -0.834-0.033-1.638-0.112-2.432-0.238-0.13-0.021-0.222-0.031-0.28-0.036-0.058 2e-3 -0.076 7e-3 -0.059 0.025 0.016 0.019 0.07 0.042 0.158 0.078 0.091 0.033 0.218 0.075 0.379 0.118 1.06 0.296 2.137 0.501 3.223 0.626 0.183 0.021 0.39 0.041 0.601 0.049 0.213 0.014 0.438 0.02 0.657 0.02s0.432-6e-3 0.63-0.019c0.12-5e-3 0.23-0.013 0.333-0.024 0.063-6e-3 0.124-0.011 0.179-0.021 0.857-0.107 1.739-0.267 2.643-0.481 0.137-0.033 0.232-0.062 0.279-0.081 0.041-0.018 0.047-0.031 0.029-0.037 2e-3 -2e-3 -8e-3 -7e-3 -0.016-6e-3m-19.602-7.001c-6e-3 0.012 0.011 0.043 0.054 0.1 0.044 0.058 0.118 0.139 0.22 0.242 0.657 0.659 1.324 1.277 1.993 1.844 0.112 0.098 0.245 0.2 0.387 0.307 0.142 0.108 0.295 0.22 0.451 0.325 0.154 0.106 0.306 0.208 0.452 0.298 0.136 0.085 0.264 0.161 0.377 0.222 9e-3 5e-3 0.018 0.011 0.021 0.015 0.711 0.391 1.435 0.751 2.17 1.076 0.116 0.05 0.201 0.083 0.256 0.099 0.054 0.016 0.073 0.017 0.069 5e-3 -3e-3 -0.015-0.039-0.046-0.105-0.085-0.065-0.047-0.157-0.102-0.273-0.173-0.725-0.433-1.434-0.913-2.132-1.442-0.109-0.08-0.234-0.173-0.367-0.271s-0.27-0.2-0.412-0.302c-0.139-0.099-0.279-0.201-0.41-0.296-0.13-0.093-0.258-0.185-0.362-0.252-0.69-0.469-1.362-0.963-2.029-1.481-0.012-7e-3 -0.02-0.015-0.029-0.021-0.097-0.077-0.173-0.131-0.228-0.166-0.031-0.02-0.06-0.033-0.076-0.039-0.014-8e-3 -0.022-8e-3 -0.027-5e-3m-17.186-5.952c-0.251-0.08-0.467-0.119-0.648-0.116-0.182 1e-3 -0.322 0.037-0.421 0.112-0.1 0.068-0.15 0.172-0.152 0.309 2e-3 0.129 0.053 0.285 0.169 0.465 0.77 1.196 1.547 2.293 2.326 3.305 0.137 0.17 0.32 0.341 0.543 0.51 0.221 0.162 0.475 0.318 0.748 0.454 0.276 0.146 0.562 0.268 0.85 0.37 0.135 0.047 0.265 0.089 0.399 0.123 0.147 0.042 0.291 0.079 0.434 0.107 1.546 0.295 3.062 0.698 4.559 1.184 0.232 0.076 0.411 0.114 0.549 0.127 0.139 0.01 0.233-8e-3 0.279-0.056 0.047-0.045 0.046-0.118-2e-3 -0.218-0.045-0.098-0.14-0.222-0.284-0.371-0.841-0.871-1.685-1.817-2.524-2.842-0.131-0.155-0.291-0.323-0.479-0.497-0.185-0.168-0.394-0.345-0.611-0.51-0.223-0.167-0.454-0.329-0.686-0.47-0.147-0.092-0.302-0.179-0.451-0.253-0.076-0.038-0.154-0.076-0.227-0.107-0.559-0.242-1.117-0.469-1.683-0.688-0.884-0.343-1.781-0.656-2.688-0.938m16.572 6.705c-0.011 0.013 7e-3 0.055 0.059 0.117 0.052 0.065 0.134 0.153 0.251 0.27 0.764 0.73 1.534 1.406 2.308 2.022 0.136 0.107 0.289 0.218 0.454 0.335 0.164 0.116 0.346 0.234 0.524 0.345 0.182 0.111 0.363 0.219 0.536 0.314 0.128 0.071 0.25 0.134 0.368 0.19 0.035 0.019 0.065 0.033 0.101 0.05 0.825 0.389 1.666 0.743 2.522 1.059 0.136 0.052 0.234 0.081 0.295 0.094 0.062 0.014 0.091 0.012 0.078-9e-3 -3e-3 -0.016-0.044-0.051-0.123-0.099-0.074-0.042-0.183-0.106-0.321-0.183-0.832-0.453-1.654-0.967-2.468-1.546-0.125-0.088-0.271-0.188-0.42-0.289-0.156-0.106-0.316-0.215-0.476-0.323-0.164-0.107-0.326-0.215-0.474-0.313-0.135-0.086-0.26-0.167-0.373-0.235-0.014-0.01-0.032-0.021-0.05-0.031-0.795-0.487-1.587-1.006-2.367-1.544-0.131-0.091-0.234-0.152-0.3-0.19-0.024-0.012-0.044-0.022-0.062-0.029-0.034-0.014-0.056-0.016-0.062-5e-3m-7.975-2.98c-0.119-0.034-0.211-0.037-0.254-2e-3 -0.042 0.035-0.052 0.098-0.014 0.193 0.04 0.096 0.119 0.218 0.244 0.365 0.855 0.991 1.71 1.905 2.566 2.749 0.143 0.143 0.326 0.297 0.528 0.452 0.205 0.151 0.432 0.307 0.663 0.456 0.233 0.146 0.473 0.287 0.703 0.407 0.118 0.062 0.23 0.119 0.342 0.175 0.106 0.05 0.208 0.095 0.306 0.135 1.166 0.488 2.329 0.994 3.503 1.497 0.18 0.076 0.319 0.126 0.416 0.146 0.093 0.021 0.147 0.017 0.16-0.012 0.011-0.028-0.016-0.08-0.087-0.154-0.071-0.077-0.184-0.175-0.336-0.295-0.9-0.707-1.799-1.483-2.699-2.337-0.137-0.13-0.303-0.273-0.479-0.421-0.177-0.149-0.371-0.306-0.569-0.455-0.197-0.153-0.4-0.301-0.597-0.436-0.131-0.095-0.263-0.179-0.383-0.257-0.061-0.035-0.117-0.069-0.173-0.103-1.12-0.651-2.244-1.292-3.371-1.906-0.125-0.063-0.233-0.118-0.331-0.156-0.052-0.017-0.097-0.031-0.138-0.041m-14.564-5.111c-0.116-0.024-0.235-0.054-0.349-0.067-1.972-0.307-3.983-0.487-6.017-0.591-0.348-0.015-0.666 0.019-0.939 0.098-0.279 0.075-0.519 0.193-0.702 0.349-0.191 0.156-0.32 0.346-0.387 0.555-0.063 0.218-0.065 0.454 0.017 0.703 0.55 1.667 1.11 3.227 1.688 4.672 0.104 0.256 0.284 0.479 0.518 0.672 0.242 0.193 0.537 0.345 0.869 0.459 0.335 0.111 0.707 0.183 1.087 0.21 0.157 0.012 0.315 0.017 0.472 0.01 0.231-4e-3 0.461-0.024 0.688-0.059 2.235-0.361 4.421-0.572 6.559-0.59 0.321-2e-3 0.6-0.039 0.823-0.104 0.22-0.064 0.386-0.153 0.5-0.263 0.116-0.107 0.167-0.242 0.164-0.395-3e-3 -0.15-0.066-0.318-0.2-0.501-0.751-1.058-1.5-2.22-2.245-3.478-0.111-0.187-0.271-0.381-0.471-0.563s-0.439-0.357-0.697-0.519c-0.261-0.163-0.54-0.304-0.836-0.423-0.178-0.067-0.357-0.126-0.542-0.175m35.216 14.031c-0.088-0.023-0.211-0.057-0.364-0.092-0.905-0.222-1.801-0.506-2.681-0.86-0.136-0.055-0.289-0.114-0.449-0.176-0.159-0.063-0.327-0.132-0.49-0.196-0.164-0.063-0.326-0.132-0.475-0.188-0.137-0.055-0.265-0.104-0.373-0.145-0.012-5e-3 -0.018-8e-3 -0.03-0.013-0.748-0.282-1.484-0.604-2.208-0.955-0.119-0.057-0.208-0.099-0.268-0.119-0.057-0.021-0.087-0.023-0.087-0.01 5e-3 0.018 0.037 0.05 0.1 0.101 0.066 0.05 0.158 0.117 0.285 0.197 0.826 0.535 1.665 1.007 2.509 1.412 0.146 0.07 0.311 0.143 0.485 0.215 0.17 0.07 0.352 0.14 0.535 0.204 0.183 0.062 0.362 0.122 0.531 0.171 0.124 0.038 0.24 0.068 0.347 0.095 0.033 8e-3 0.069 0.02 0.098 0.023 0.779 0.178 1.57 0.312 2.385 0.401 0.129 0.018 0.216 0.022 0.268 0.018 0.049-1e-3 0.063-0.01 0.043-0.024-9e-3 -3e-3 -0.022-0.013-0.043-0.021-0.029-0.011-0.069-0.022-0.118-0.038m-13.557-4.814c-0.016 0.021 0.01 0.073 0.065 0.146 0.057 0.073 0.158 0.177 0.292 0.299 0.916 0.812 1.825 1.548 2.739 2.215 0.158 0.113 0.338 0.235 0.539 0.357 0.199 0.121 0.414 0.243 0.628 0.358 0.217 0.114 0.438 0.226 0.64 0.317 0.109 0.05 0.218 0.097 0.322 0.14 0.084 0.034 0.165 0.064 0.243 0.096 0.985 0.363 1.984 0.698 3.015 0.986 0.156 0.044 0.271 0.066 0.344 0.076 0.072 8e-3 0.103-4e-3 0.095-0.025-0.013-0.024-0.062-0.061-0.149-0.111-0.089-0.054-0.217-0.121-0.38-0.199-0.979-0.477-1.949-1.026-2.912-1.655-0.147-0.096-0.316-0.203-0.5-0.318-0.175-0.108-0.368-0.223-0.556-0.333-0.192-0.114-0.382-0.229-0.561-0.33-0.124-0.072-0.245-0.137-0.354-0.196-0.049-0.028-0.096-0.051-0.141-0.075-0.959-0.494-1.904-1.015-2.844-1.55-0.155-0.086-0.277-0.149-0.365-0.183-0.086-0.032-0.139-0.038-0.16-0.015m14.976 5.791c-0.107-0.022-0.248-0.051-0.433-0.084-1.061-0.184-2.12-0.453-3.164-0.81-0.157-0.054-0.34-0.111-0.523-0.172-0.191-0.064-0.383-0.128-0.571-0.19-0.193-0.064-0.383-0.127-0.552-0.183-0.127-0.041-0.244-0.079-0.35-0.113-0.044-0.013-0.085-0.024-0.123-0.037-0.877-0.262-1.734-0.571-2.575-0.914-0.137-0.057-0.242-0.093-0.313-0.112-0.067-0.021-0.101-0.017-0.097 3e-3 3e-3 0.019 0.039 0.06 0.115 0.119 0.075 0.052 0.187 0.128 0.334 0.214 0.981 0.579 1.968 1.076 2.966 1.494 0.164 0.07 0.357 0.145 0.564 0.215 0.201 0.073 0.416 0.14 0.633 0.197 0.216 0.062 0.426 0.116 0.623 0.156 0.114 0.026 0.223 0.047 0.319 0.066 0.078 0.012 0.147 0.023 0.21 0.034 0.901 0.127 1.828 0.205 2.781 0.225 0.145 5e-3 0.251 2e-3 0.308-8e-3 0.061-8e-3 0.072-0.023 0.044-0.039-7e-3 -5e-3 -0.017-0.012-0.032-0.018-0.036-0.013-0.092-0.027-0.164-0.043m1.807 1.207c-0.124-0.02-0.298-0.044-0.509-0.066-1.266-0.135-2.526-0.371-3.784-0.724-0.188-0.051-0.403-0.107-0.628-0.167-0.218-0.057-0.448-0.117-0.676-0.178-0.226-0.057-0.447-0.113-0.655-0.166-0.106-0.027-0.211-0.052-0.306-0.074-0.088-0.02-0.171-0.039-0.249-0.058-1.046-0.219-2.066-0.499-3.066-0.807-0.172-0.054-0.293-0.086-0.379-0.098-0.083-0.012-0.123-3e-3 -0.12 0.028 1e-3 0.026 0.045 0.073 0.134 0.141 0.09 0.061 0.223 0.141 0.4 0.236 1.185 0.625 2.366 1.146 3.543 1.57 0.199 0.071 0.428 0.146 0.677 0.214 0.238 0.065 0.499 0.13 0.757 0.183 0.254 0.054 0.508 0.096 0.746 0.129 0.084 0.013 0.169 0.021 0.249 0.03 0.139 0.015 0.269 0.025 0.384 0.032 1.068 0.05 2.171 0.043 3.312-0.044 0.17-0.016 0.292-0.032 0.361-0.053 0.07-0.018 0.086-0.041 0.052-0.065-7e-3 -5e-3 -0.02-0.01-0.034-0.015-0.042-0.014-0.112-0.032-0.209-0.048m-17.915-5.17c-0.117-0.019-0.189-6e-3 -0.213 0.036-0.027 0.037-6e-3 0.102 0.058 0.191 0.069 0.089 0.188 0.202 0.354 0.333 1.125 0.885 2.24 1.661 3.334 2.354 0.19 0.12 0.413 0.243 0.658 0.364 0.245 0.122 0.511 0.242 0.775 0.352 0.268 0.105 0.535 0.206 0.791 0.289 0.079 0.026 0.155 0.053 0.233 0.073 0.164 0.052 0.322 0.095 0.462 0.126 1.209 0.283 2.435 0.552 3.696 0.778 0.193 0.032 0.332 0.046 0.425 0.044 0.09-3e-3 0.127-0.022 0.117-0.055-0.01-0.032-0.073-0.079-0.175-0.138-0.106-0.058-0.26-0.128-0.457-0.213-1.152-0.494-2.318-1.077-3.487-1.761-0.174-0.104-0.379-0.22-0.598-0.332-0.212-0.113-0.444-0.231-0.673-0.347s-0.463-0.227-0.68-0.326c-0.107-0.048-0.213-0.096-0.31-0.138-0.104-0.045-0.205-0.086-0.296-0.121-0.64-0.245-1.271-0.491-1.905-0.738-0.548-0.212-1.093-0.426-1.637-0.635-0.2-0.076-0.358-0.121-0.472-0.136m-4.44-1.57c-1.508-0.451-3.04-0.817-4.598-1.072-0.266-0.046-0.491-0.05-0.67-0.023-0.18 0.025-0.312 0.086-0.389 0.171-0.085 0.087-0.112 0.197-0.08 0.33 0.037 0.13 0.126 0.281 0.287 0.44 1.086 1.08 2.158 2.024 3.216 2.861 0.187 0.148 0.424 0.287 0.694 0.415 0.27 0.127 0.57 0.24 0.883 0.344 0.31 0.097 0.631 0.179 0.944 0.248 0.077 0.013 0.154 0.028 0.225 0.04 0.232 0.044 0.451 0.072 0.658 0.091 1.57 0.129 3.128 0.378 4.681 0.693 0.232 0.047 0.412 0.068 0.539 0.066 0.125-3e-3 0.201-0.028 0.223-0.075 0.025-0.051-9e-3 -0.12-0.089-0.207-0.082-0.088-0.22-0.195-0.407-0.324-1.083-0.729-2.188-1.544-3.303-2.464-0.169-0.138-0.371-0.285-0.597-0.433-0.22-0.146-0.468-0.296-0.72-0.436-0.25-0.141-0.511-0.273-0.763-0.385-0.108-0.05-0.219-0.098-0.326-0.139-0.01-5e-3 -0.022-8e-3 -0.036-0.013-0.128-0.048-0.25-0.09-0.372-0.128m-29.975-10.086c-0.212-0.056-0.434-0.101-0.661-0.123-0.168-0.02-0.339-0.031-0.511-0.028-2.699 0.011-5.388 0.011-8.012-0.144-0.452-0.025-0.878 0.01-1.264 0.107-0.392 0.092-0.736 0.24-1.024 0.443-0.292 0.204-0.525 0.456-0.681 0.75-0.16 0.299-0.239 0.641-0.222 1.011 0.116 2.532 0.2 5.104 0.276 7.649 0.013 0.449 0.13 0.878 0.334 1.25 0.202 0.379 0.494 0.704 0.847 0.954 0.36 0.248 0.783 0.419 1.244 0.496 0.16 0.025 0.321 0.04 0.486 0.042 0.323 8e-3 0.659-0.023 1.006-0.101 2.999-0.679 6.11-1.586 9.229-2.44 0.467-0.127 0.887-0.308 1.249-0.524 0.364-0.215 0.669-0.461 0.904-0.722 0.229-0.263 0.392-0.541 0.479-0.821 0.081-0.279 0.08-0.566-4e-3 -0.851-0.503-1.613-0.985-3.338-1.464-5.162-0.07-0.271-0.214-0.526-0.42-0.754-0.208-0.234-0.467-0.44-0.774-0.616-0.175-0.099-0.369-0.191-0.57-0.27-0.143-0.055-0.292-0.103-0.447-0.146m20.54 8.961c-0.305-0.113-0.628-0.204-0.962-0.264-0.129-0.021-0.26-0.043-0.384-0.056-0.207-0.021-0.412-0.026-0.608-0.016-2.177 0.105-4.41 0.42-6.695 0.921-0.394 0.079-0.749 0.217-1.05 0.386-0.306 0.174-0.559 0.383-0.746 0.613-0.193 0.229-0.314 0.485-0.359 0.738-0.048 0.26-0.011 0.516 0.119 0.757 0.899 1.64 1.825 3.051 2.762 4.267 0.169 0.219 0.421 0.378 0.74 0.474 0.318 0.106 0.697 0.15 1.109 0.14s0.855-0.069 1.302-0.172c0.076-0.017 0.155-0.035 0.23-0.052 0.369-0.099 0.737-0.221 1.091-0.369 2.435-1.015 4.791-1.717 7.079-2.107 0.336-0.058 0.618-0.137 0.835-0.228 0.21-0.096 0.366-0.203 0.452-0.324 0.087-0.117 0.11-0.248 0.063-0.389-0.045-0.14-0.158-0.284-0.34-0.438-1.049-0.87-2.114-1.859-3.181-3.002-0.16-0.167-0.37-0.331-0.619-0.479-0.232-0.138-0.499-0.268-0.785-0.379-0.016-7e-3 -0.034-0.014-0.053-0.021m-16.556 2.752c-1.318 0.204-3.558 0.982-4.859 1.455-2.883 1.053-5.716 1.703-8.515 3.637-0.473 0.332-0.897 0.725-1.25 1.171-0.355 0.446-0.64 0.943-0.834 1.461-0.195 0.525-0.296 1.077-0.273 1.607 0.133 3.734 0.31 7.255 0.554 10.488 0.044 0.587 0.229 1.043 0.523 1.352 0.303 0.314 0.72 0.473 1.222 0.47 0.5 0 1.085-0.156 1.715-0.459 0.051-0.024 0.107-0.051 0.154-0.078 0.59-0.296 1.208-0.711 1.833-1.226 3.844-3.152 7.745-6.241 11.564-8.878 0.558-0.383 1.047-0.793 1.458-1.198 0.409-0.406 0.74-0.807 0.975-1.186 0.238-0.379 0.391-0.74 0.437-1.067 0.052-0.323 6e-3 -0.618-0.149-0.875-0.866-1.422-1.71-3.067-2.519-4.966-0.289-0.67-0.678-1.391-1.314-1.636-0.211-0.081-0.451-0.112-0.722-0.072"/>
            </defs>
            <use overflow="visible" xlink:href="#a" xmlns:xlink="http://www.w3.org/1999/xlink"/>
            <clipPath>
                <use overflow="visible" xlink:href="#a" xmlns:xlink="http://www.w3.org/1999/xlink"/>
            </clipPath>
        </g>
    </g>
</svg>
